<svg width="951" height="202" viewBox="0 0 951 202" fill="none" xmlns="http://www.w3.org/2000/svg">
<path d="M87.7585 99.6264L111.615 60.8424C113.772 57.3949 122.97 68.0246 119.233 73.7704C111.615 85.8365 106.585 94.5988 101.268 103.361C111.041 102.787 121.82 101.781 128 100.632C131.305 99.9137 128.287 112.554 118.083 113.704C109.316 114.565 101.843 114.278 94.9443 113.991C92.07 118.875 88.7645 124.046 84.7405 130.223C75.83 143.869 61.6021 157.515 44.2124 149.902C35.8768 146.311 28.4035 136.399 34.8708 126.057C43.9249 111.549 62.8955 105.659 82.8721 103.792C66.6322 89.1403 65.0513 73.0522 68.7879 63.7153C82.8721 28.2351 143.952 35.7046 158.324 39.4394C162.204 40.5885 170.252 53.2292 164.791 52.0801C145.102 47.9144 91.7826 40.5885 82.5847 70.1793C80.4289 77.2178 80.2852 87.7039 87.7585 99.6264ZM60.0212 138.554C67.6382 132.09 73.5306 123.471 78.8481 114.422C54.56 118.444 41.7692 136.974 44.9309 141.427C48.955 147.029 56.8594 141.14 60.0212 138.554ZM191.703 34.4118C193.284 32.6881 197.021 33.4063 200.183 38.0029C202.913 41.8813 202.338 46.4779 200.47 50.069C198.458 54.0911 181.356 78.5106 163.247 99.1954C161.092 101.925 159.367 104.079 159.223 104.367C155.774 109.538 143.702 126.632 148.157 131.803C153.33 137.692 170.002 118.3 177.475 107.67C179.2 105.085 185.955 111.98 180.637 119.88C167.271 139.847 152.325 145.018 144.42 136.974C142.408 134.963 141.259 132.808 140.54 130.654C138.384 125.051 137.953 117.726 140.971 111.693C147.439 99.1954 182.074 44.1796 191.703 34.4118ZM244.781 107.814C246.505 105.085 253.26 112.123 247.941 120.024C234.577 140.134 221.211 143.438 214.457 138.554C211.295 136.256 210.145 133.096 210.001 129.504C201.809 138.985 192.468 145.305 182.983 135.825C173.64 126.344 177.378 115.858 188.3 99.3391C194.049 90.5768 202.241 83.3946 208.42 80.2344C213.594 77.6488 217.043 78.367 221.642 81.9581C224.373 83.9691 228.684 85.6929 228.828 89.5713C232.709 91.0077 236.733 95.317 235.439 97.1844C234.146 98.9081 229.547 104.654 225.235 111.549C220.205 119.306 214.313 130.079 218.481 132.952C222.217 135.537 237.307 118.444 244.781 107.814ZM185.857 131.946C187.15 133.67 194.335 130.223 208.708 112.267L211.295 108.532C215.175 102.499 221.067 91.7259 218.912 89.7149C216.469 87.7039 205.546 96.6098 196.491 109.969C190.456 118.731 184.276 129.792 185.857 131.946ZM306.112 89.5713C305.537 91.4386 300.076 102.356 292.89 112.985C293.321 115.571 294.04 118.444 295.62 119.018C298.782 120.168 304.675 116.433 312.148 104.51C313.441 102.499 320.771 108.676 315.022 117.438C309.561 125.77 295.333 136.543 286.423 121.604C276.219 134.388 262.709 148.178 249.919 134.963C242.013 126.919 245.176 113.991 255.955 98.1899C263.572 86.9857 267.165 83.1073 269.464 80.378C273.919 75.4941 281.105 84.831 279.237 88.4221L264.29 109.107C258.254 117.438 252.362 128.212 255.092 130.654C260.985 135.825 275.644 117.007 287.429 98.0463C290.159 88.2785 294.471 78.6543 299.357 79.2289C301.225 79.5161 308.268 82.2454 306.112 89.5713ZM376.695 106.378C377.844 104.367 385.605 109.969 380 118.731C374.826 126.488 361.748 136.974 352.694 126.057C349.388 130.654 345.508 135.107 341.915 137.405C330.849 144.874 322.945 139.847 320.501 137.836C318.058 135.968 310.585 132.665 311.304 123.04C312.884 104.079 326.394 88.9967 332.861 83.2509C339.472 77.5051 344.358 77.0742 349.676 80.0907C365.054 88.853 365.197 97.1844 360.167 112.411C359.592 113.847 358.874 115.571 357.868 117.438C358.443 119.018 359.161 120.455 360.167 120.886C363.185 122.035 369.221 118.3 376.695 106.378ZM324.669 132.377C328.55 135.394 339.472 122.035 344.215 114.853C344.788 113.991 345.364 112.985 346.083 111.836C344.071 106.09 342.203 98.3336 343.209 92.4441C339.616 95.317 335.304 99.9137 330.993 106.952C325.1 116.289 321.22 129.792 324.669 132.377ZM437.919 107.527C439.644 104.941 446.542 111.836 441.368 119.737C428.003 139.847 409.751 143.725 402.134 137.979C390.636 129.073 402.852 109.251 412.337 94.8861C409.463 94.5988 406.445 93.5933 403.571 91.0077C398.828 99.77 388.624 114.565 384.169 120.455C382.301 123.04 371.09 120.886 374.971 116.145C387.187 101.206 390.924 91.295 393.511 84.9746C391.641 82.9636 390.636 80.6653 391.499 77.3615C394.517 65.5826 404.289 56.964 408.888 58.4004C414.637 60.1242 416.362 66.8754 412.912 76.6433C412.337 78.367 411.331 80.9526 408.313 86.2674C412.05 87.4166 417.368 83.9691 422.541 80.2344C422.973 79.8034 423.404 79.8034 423.835 79.8034C424.841 79.8034 425.703 80.378 426.422 81.2399C431.596 86.2674 431.883 92.7314 431.021 94.1679C427.571 99.1954 403.571 127.637 407.307 133.526C411.044 139.416 431.164 118.587 437.919 107.527Z" fill="#FF6244"/>
<path d="M467.306 45.3108H479.378V88.4041H533.703V45.3108H545.775V147.011H533.703V99.6084H479.378V147.011H467.306V45.3108ZM570.745 113.398C570.745 108.131 571.654 103.343 573.474 99.0338C575.295 94.7245 577.787 91.0376 580.948 87.9732C584.11 84.813 587.894 82.3711 592.302 80.6473C596.709 78.9236 601.5 78.0617 606.674 78.0617C611.848 78.0617 616.637 78.9236 621.045 80.6473C625.452 82.3711 629.237 84.813 632.399 87.9732C635.561 91.0376 638.051 94.7245 639.871 99.0338C641.692 103.343 642.603 108.131 642.603 113.398C642.603 118.665 641.692 123.453 639.871 127.763C638.051 132.072 635.561 135.807 632.399 138.967C629.237 142.032 625.452 144.425 621.045 146.149C616.637 147.873 611.848 148.735 606.674 148.735C601.5 148.735 596.709 147.873 592.302 146.149C587.894 144.425 584.11 142.032 580.948 138.967C577.787 135.807 575.295 132.072 573.474 127.763C571.654 123.453 570.745 118.665 570.745 113.398ZM582.817 113.398C582.817 116.941 583.343 120.245 584.398 123.31C585.547 126.278 587.175 128.912 589.284 131.21C591.392 133.413 593.883 135.184 596.757 136.525C599.727 137.77 603.033 138.392 606.674 138.392C610.314 138.392 613.572 137.77 616.447 136.525C619.416 135.184 621.955 133.413 624.063 131.21C626.171 128.912 627.752 126.278 628.806 123.31C629.956 120.245 630.531 116.941 630.531 113.398C630.531 109.855 629.956 106.599 628.806 103.63C627.752 100.566 626.171 97.9326 624.063 95.73C621.955 93.4317 619.416 91.66 616.447 90.4151C613.572 89.0744 610.314 88.4041 606.674 88.4041C603.033 88.4041 599.727 89.0744 596.757 90.4151C593.883 91.66 591.392 93.4317 589.284 95.73C587.175 97.9326 585.547 100.566 584.398 103.63C583.343 106.599 582.817 109.855 582.817 113.398ZM724.207 131.067C724.207 134.131 724.302 137.004 724.494 139.685C724.685 142.366 724.782 144.808 724.782 147.011H714.147C714.147 145.192 714.099 143.372 714.003 141.553C713.907 139.733 713.859 137.866 713.859 135.95H713.572C712.805 137.579 711.704 139.159 710.267 140.691C708.925 142.223 707.296 143.612 705.38 144.856C703.464 146.006 701.308 146.916 698.913 147.586C696.517 148.352 693.93 148.735 691.152 148.735C686.744 148.735 682.912 148.065 679.655 146.724C676.493 145.383 673.858 143.515 671.75 141.122C669.642 138.728 668.061 135.855 667.008 132.503C666.049 129.055 665.571 125.321 665.571 121.299V79.7855H676.781V120.15C676.781 125.8 678.026 130.253 680.517 133.508C683.007 136.764 686.888 138.392 692.158 138.392C695.798 138.392 698.913 137.77 701.5 136.525C704.182 135.28 706.338 133.508 707.967 131.21C709.692 128.912 710.937 126.183 711.704 123.022C712.566 119.862 712.997 116.367 712.997 112.536V79.7855H724.207V131.067ZM752.48 129.343C754.683 132.12 757.079 134.322 759.666 135.95C762.348 137.579 765.702 138.392 769.726 138.392C771.451 138.392 773.175 138.2 774.9 137.818C776.72 137.435 778.349 136.812 779.786 135.95C781.223 135.089 782.373 134.035 783.235 132.79C784.098 131.449 784.529 129.869 784.529 128.05C784.529 126.231 784.098 124.746 783.235 123.597C782.468 122.448 781.414 121.491 780.073 120.724C778.732 119.862 777.199 119.192 775.475 118.713C773.75 118.234 771.977 117.803 770.157 117.42C766.995 116.75 763.977 115.984 761.103 115.122C758.229 114.26 755.689 113.159 753.486 111.818C751.377 110.382 749.653 108.562 748.312 106.36C747.066 104.157 746.444 101.332 746.444 97.8847C746.444 94.6288 747.162 91.7559 748.6 89.266C750.037 86.7761 751.952 84.7173 754.348 83.0893C756.743 81.4613 759.425 80.2164 762.396 79.3545C765.366 78.4927 768.432 78.0617 771.594 78.0617C776.384 78.0617 780.792 79.0193 784.816 80.9346C788.936 82.8499 792.146 85.9622 794.445 90.2715L785.104 96.4482C783.666 94.0542 781.75 92.1389 779.355 90.7024C777.055 89.1703 774.228 88.4041 770.876 88.4041C769.342 88.4041 767.761 88.5957 766.133 88.9787C764.599 89.3617 763.21 89.9363 761.965 90.7024C760.719 91.4686 759.666 92.4741 758.803 93.719C758.037 94.8681 757.654 96.2088 757.654 97.741C757.654 99.1775 758.085 100.422 758.947 101.476C759.905 102.433 761.15 103.295 762.684 104.061C764.312 104.828 766.133 105.498 768.145 106.072C770.253 106.647 772.408 107.126 774.612 107.509C777.582 108.083 780.408 108.85 783.092 109.807C785.774 110.669 788.122 111.866 790.134 113.398C792.146 114.93 793.727 116.846 794.876 119.144C796.026 121.442 796.601 124.267 796.601 127.619C796.601 131.449 795.834 134.706 794.301 137.387C792.768 140.068 790.709 142.271 788.122 143.995C785.63 145.623 782.756 146.819 779.499 147.586C776.337 148.352 773.079 148.735 769.726 148.735C763.977 148.735 758.994 147.873 754.779 146.149C750.659 144.33 746.922 141.026 743.57 136.238L752.48 129.343ZM877.922 134.801C873.898 139.972 869.49 143.612 864.7 145.718C859.909 147.729 854.353 148.735 848.029 148.735C842.759 148.735 838.016 147.825 833.801 146.006C829.585 144.09 825.992 141.553 823.022 138.392C820.148 135.232 817.896 131.497 816.268 127.188C814.734 122.879 813.968 118.282 813.968 113.398C813.968 108.227 814.83 103.487 816.555 99.1775C818.28 94.7724 820.675 91.0376 823.741 87.9732C826.806 84.813 830.447 82.3711 834.663 80.6473C838.878 78.9236 843.477 78.0617 848.46 78.0617C853.155 78.0617 857.466 78.8757 861.395 80.5037C865.322 82.0359 868.676 84.3342 871.455 87.3986C874.329 90.3672 876.532 94.0542 878.066 98.4592C879.598 102.769 880.365 107.7 880.365 113.255V116.846H826.04C826.231 119.719 826.903 122.496 828.052 125.177C829.298 127.763 830.878 130.061 832.795 132.072C834.711 133.988 836.963 135.519 839.55 136.669C842.137 137.818 844.963 138.392 848.029 138.392C852.915 138.392 857.035 137.531 860.389 135.807C863.741 134.083 866.759 131.546 869.443 128.194L877.922 134.801ZM868.293 107.365C868.101 101.619 866.233 97.0228 862.688 93.5753C859.142 90.1279 854.256 88.4041 848.029 88.4041C841.801 88.4041 836.771 90.1279 832.939 93.5753C829.106 97.0228 826.806 101.619 826.04 107.365H868.293Z" fill="white"/>
<path d="M459.22 105.832L467.836 83.0444H482.748L478.771 105.832H459.22Z" fill="#FC2E06"/>
<path d="M554.657 104.491L546.162 83.0444H531.46L535.381 104.491H554.657Z" fill="#FC2E06"/>
<path d="M499.317 83.0444H482.416L478.439 105.497H497.991L499.317 83.0444Z" fill="#E7E7E7"/>
<path d="M514.891 83.0444H531.791L535.768 105.497H516.217L514.891 83.0444Z" fill="#E7E7E7"/>
<path d="M497.659 105.162L499.009 83.0444H516.205L516.879 105.162H497.659Z" fill="#FC2E06"/>
<path d="M459.22 105.162H478.44V109.631C478.44 114.936 474.137 119.236 468.83 119.236C463.522 119.236 459.22 114.936 459.22 109.631V105.162Z" fill="#FF6244"/>
<path d="M478.462 104.935H497.703V109.328C497.703 114.639 493.396 118.944 488.082 118.944C482.769 118.944 478.462 114.639 478.462 109.328V104.935Z" fill="#CBCBCB"/>
<path d="M497.659 104.491H516.879V108.961C516.879 114.266 512.577 118.566 507.269 118.566C501.962 118.566 497.659 114.266 497.659 108.961V104.491Z" fill="#FF6244"/>
<path d="M516.878 104.491H535.434V109.292C535.434 114.414 531.28 118.566 526.156 118.566C521.031 118.566 516.878 114.414 516.878 109.292V104.491Z" fill="#CBCBCB"/>
<path d="M535.437 104.491H554.656V108.961C554.656 114.266 550.354 118.566 545.046 118.566C539.739 118.566 535.437 114.266 535.437 108.961V104.491Z" fill="#FF6244"/>
</svg>
