<svg width="197" height="42" viewBox="0 0 197 42" fill="none" xmlns="http://www.w3.org/2000/svg">
<path d="M18.1796 20.7143L23.1216 12.6503C23.5683 11.9335 25.4736 14.1437 24.6996 15.3383C23.1216 17.8471 22.0796 19.669 20.9781 21.4909C23.0025 21.3714 25.2354 21.1623 26.5156 20.9234C27.2003 20.7741 26.5751 23.4023 24.4614 23.6413C22.6452 23.8205 21.0972 23.7607 19.6681 23.701C19.0727 24.7165 18.388 25.7917 17.5544 27.0759C15.7086 29.9133 12.7613 32.7506 9.159 31.1677C7.43228 30.421 5.88419 28.3602 7.22389 26.2098C9.09946 23.1933 13.0292 21.9687 17.1674 21.5805C13.8033 18.5341 13.4758 15.189 14.2498 13.2477C17.1674 5.87061 29.8202 7.42367 32.7973 8.20021C33.6011 8.43914 35.2682 11.0674 34.137 10.8285C30.0583 9.96234 19.0132 8.43914 17.1078 14.5917C16.6613 16.0551 16.6315 18.2354 18.1796 20.7143ZM12.4338 28.8082C14.0117 27.4642 15.2323 25.6722 16.3338 23.7906C11.3025 24.6269 8.65289 28.4797 9.30785 29.4055C10.1414 30.5703 11.7788 29.3458 12.4338 28.8082ZM39.7118 7.15487C40.0393 6.79647 40.8133 6.94581 41.4683 7.90154C42.0339 8.70794 41.9148 9.66367 41.5278 10.4103C41.111 11.2466 37.5683 16.3239 33.8171 20.6247C33.3706 21.1922 33.0133 21.6402 32.9836 21.6999C32.2691 22.7751 29.7683 26.3293 30.6912 27.4045C31.7627 28.629 35.2164 24.597 36.7645 22.3869C37.1217 21.8493 38.521 23.2829 37.4194 24.9255C34.6507 29.077 31.5546 30.1522 29.9171 28.4797C29.5004 28.0615 29.2622 27.6135 29.1133 27.1655C28.6668 26.0007 28.5775 24.4775 29.2026 23.2231C30.5423 20.6247 37.7171 9.18581 39.7118 7.15487ZM50.7068 22.4167C51.0641 21.8493 52.4633 23.3127 51.3615 24.9554C48.5931 29.1367 45.8244 29.8237 44.4251 28.8082C43.7702 28.3303 43.532 27.6733 43.5022 26.9266C41.8053 28.8978 39.8702 30.2119 37.9053 28.2407C35.97 26.2695 36.7442 24.0893 39.0068 20.6546C40.1977 18.8327 41.8946 17.3394 43.1748 16.6823C44.2465 16.1447 44.961 16.2941 45.9137 17.0407C46.4793 17.4589 47.3725 17.8173 47.4022 18.6237C48.2061 18.9223 49.0396 19.8183 48.7717 20.2066C48.5038 20.565 47.5511 21.7597 46.658 23.1933C45.616 24.8061 44.3954 27.0461 45.2587 27.6434C46.0328 28.181 49.1587 24.6269 50.7068 22.4167ZM38.5007 27.4343C38.7687 27.7927 40.257 27.0759 43.2343 23.3426L43.7702 22.5661C44.574 21.3117 45.7946 19.0717 45.348 18.6535C44.8419 18.2354 42.5793 20.0871 40.7035 22.8647C39.4534 24.6866 38.1732 26.9863 38.5007 27.4343ZM63.4116 18.6237C63.2925 19.0119 62.1612 21.2818 60.6726 23.4919C60.762 24.0295 60.9108 24.6269 61.2383 24.7463C61.8933 24.9853 63.1139 24.2087 64.662 21.7298C64.9299 21.3117 66.4482 22.5959 65.2574 24.4178C64.1261 26.1501 61.1788 28.3901 59.333 25.2839C57.2192 27.9421 54.4207 30.8093 51.7711 28.0615C50.1335 26.389 50.7887 23.701 53.0215 20.4157C54.5994 18.0861 55.3436 17.2797 55.82 16.7122C56.7429 15.6967 58.2314 17.6381 57.8444 18.3847L54.7482 22.6855C53.4978 24.4178 52.2772 26.6578 52.8429 27.1655C54.0635 28.2407 57.1001 24.3282 59.5413 20.3858C60.107 18.3549 61.0001 16.3538 62.0123 16.4733C62.3994 16.533 63.8581 17.1005 63.4116 18.6237ZM78.0328 22.1181C78.271 21.6999 79.8786 22.8647 78.7176 24.6866C77.6458 26.2994 74.9367 28.4797 73.0611 26.2098C72.3764 27.1655 71.5725 28.0914 70.8283 28.5693C68.5359 30.1223 66.8985 29.077 66.3924 28.6589C65.8863 28.2706 64.3382 27.5837 64.487 25.5826C64.8145 21.6402 67.613 18.5042 68.9527 17.3095C70.3222 16.1149 71.3344 16.0253 72.4359 16.6525C75.6214 18.4743 75.6512 20.2066 74.6092 23.3725C74.4901 23.6711 74.3412 24.0295 74.1328 24.4178C74.2519 24.7463 74.4008 25.045 74.6092 25.1346C75.2344 25.3735 76.4847 24.597 78.0328 22.1181ZM67.2557 27.5239C68.0596 28.1511 70.3222 25.3735 71.3046 23.8802C71.4234 23.701 71.5428 23.4919 71.6916 23.253C71.2748 22.0583 70.8878 20.4455 71.0962 19.221C70.3519 19.8183 69.4588 20.7741 68.5657 22.2375C67.3451 24.1789 66.5412 26.9863 67.2557 27.5239ZM90.7155 22.357C91.0727 21.8194 92.5018 23.253 91.43 24.8957C88.6613 29.077 84.8804 29.8834 83.3025 28.6887C80.9209 26.837 83.4514 22.7154 85.4163 19.7287C84.8208 19.669 84.1957 19.4599 83.6002 18.9223C82.6178 20.7442 80.5041 23.8205 79.5812 25.045C79.1941 25.5826 76.8718 25.1346 77.6758 24.149C80.2063 21.0429 80.9804 18.9821 81.5163 17.6679C81.129 17.2498 80.9208 16.7719 81.0995 16.085C81.7247 13.6359 83.7491 11.8439 84.7018 12.1426C85.8926 12.501 86.2498 13.9047 85.5353 15.9357C85.4163 16.2941 85.2079 16.8317 84.5827 17.9367C85.3567 18.1757 86.4582 17.4589 87.53 16.6823C87.6193 16.5927 87.7086 16.5927 87.7979 16.5927C88.0063 16.5927 88.185 16.7122 88.3338 16.8914C89.4056 17.9367 89.4651 19.2807 89.2865 19.5794C88.572 20.6247 83.6002 26.5383 84.3743 27.7629C85.1483 28.9874 89.3163 24.6567 90.7155 22.357Z" fill="#FF6244"/>
<path d="M96.8027 9.42102H99.3035V18.381H110.557V9.42102H113.058V30.5666H110.557V20.7106H99.3035V30.5666H96.8027V9.42102ZM118.23 23.5778C118.23 22.4827 118.419 21.4872 118.796 20.5912C119.173 19.6952 119.689 18.9286 120.344 18.2914C120.999 17.6344 121.783 17.1266 122.696 16.7682C123.609 16.4098 124.601 16.2306 125.673 16.2306C126.745 16.2306 127.737 16.4098 128.65 16.7682C129.563 17.1266 130.347 17.6344 131.002 18.2914C131.657 18.9286 132.173 19.6952 132.55 20.5912C132.927 21.4872 133.116 22.4827 133.116 23.5778C133.116 24.6729 132.927 25.6685 132.55 26.5645C132.173 27.4605 131.657 28.237 131.002 28.8941C130.347 29.5313 129.563 30.029 128.65 30.3874C127.737 30.7458 126.745 30.925 125.673 30.925C124.601 30.925 123.609 30.7458 122.696 30.3874C121.783 30.029 120.999 29.5313 120.344 28.8941C119.689 28.237 119.173 27.4605 118.796 26.5645C118.419 25.6685 118.23 24.6729 118.23 23.5778ZM120.731 23.5778C120.731 24.3145 120.84 25.0014 121.058 25.6386C121.297 26.2558 121.634 26.8034 122.071 27.2813C122.507 27.7393 123.023 28.1075 123.619 28.3864C124.234 28.6451 124.919 28.7746 125.673 28.7746C126.427 28.7746 127.102 28.6451 127.697 28.3864C128.313 28.1075 128.838 27.7393 129.275 27.2813C129.712 26.8034 130.039 26.2558 130.258 25.6386C130.496 25.0014 130.615 24.3145 130.615 23.5778C130.615 22.8411 130.496 22.1641 130.258 21.5469C130.039 20.9097 129.712 20.3622 129.275 19.9042C128.838 19.4264 128.313 19.058 127.697 18.7992C127.102 18.5204 126.427 18.381 125.673 18.381C124.919 18.381 124.234 18.5204 123.619 18.7992C123.023 19.058 122.507 19.4264 122.071 19.9042C121.634 20.3622 121.297 20.9097 121.058 21.5469C120.84 22.1641 120.731 22.8411 120.731 23.5778ZM150.02 27.2514C150.02 27.8887 150.04 28.486 150.079 29.0434C150.119 29.6009 150.139 30.1086 150.139 30.5666H147.936C147.936 30.1884 147.926 29.8099 147.906 29.4317C147.886 29.0535 147.876 28.6652 147.876 28.2669H147.817C147.658 28.6055 147.43 28.934 147.132 29.2525C146.854 29.571 146.517 29.8599 146.12 30.1186C145.723 30.3576 145.276 30.5468 144.78 30.6861C144.284 30.8455 143.748 30.925 143.173 30.925C142.259 30.925 141.466 30.7857 140.791 30.5069C140.136 30.2281 139.59 29.8398 139.154 29.3421C138.717 28.8444 138.389 28.2471 138.171 27.5501C137.972 26.8333 137.873 26.0568 137.873 25.2205V16.589H140.196V24.9816C140.196 26.1564 140.453 27.0823 140.97 27.7592C141.485 28.4361 142.289 28.7746 143.381 28.7746C144.135 28.7746 144.78 28.6451 145.316 28.3864C145.872 28.1276 146.318 27.7592 146.656 27.2813C147.013 26.8034 147.271 26.236 147.43 25.5789C147.608 24.9218 147.698 24.195 147.698 23.3986V16.589H150.02V27.2514ZM155.877 26.893C156.333 27.4705 156.829 27.9283 157.365 28.2669C157.921 28.6055 158.616 28.7746 159.449 28.7746C159.806 28.7746 160.164 28.7347 160.521 28.6552C160.898 28.5756 161.235 28.4461 161.533 28.2669C161.831 28.0877 162.069 27.8686 162.248 27.6098C162.426 27.331 162.516 27.0025 162.516 26.6242C162.516 26.246 162.426 25.9373 162.248 25.6984C162.089 25.4594 161.87 25.2604 161.593 25.101C161.315 24.9218 160.997 24.7825 160.64 24.6829C160.283 24.5833 159.916 24.4937 159.539 24.4141C158.884 24.2748 158.258 24.1154 157.663 23.9362C157.068 23.757 156.541 23.5281 156.085 23.2493C155.648 22.9506 155.291 22.5723 155.013 22.1144C154.755 21.6564 154.626 21.069 154.626 20.3522C154.626 19.6753 154.775 19.0779 155.073 18.5602C155.371 18.0425 155.767 17.6145 156.264 17.276C156.76 16.9375 157.315 16.6786 157.931 16.4994C158.546 16.3202 159.181 16.2306 159.836 16.2306C160.828 16.2306 161.742 16.4297 162.575 16.828C163.428 17.2262 164.093 17.8733 164.57 18.7693L162.635 20.0536C162.337 19.5558 161.94 19.1576 161.444 18.8589C160.968 18.5403 160.382 18.381 159.687 18.381C159.37 18.381 159.042 18.4209 158.705 18.5005C158.387 18.5801 158.1 18.6996 157.842 18.8589C157.583 19.0182 157.365 19.2273 157.187 19.4861C157.028 19.725 156.948 20.0038 156.948 20.3224C156.948 20.621 157.038 20.8799 157.216 21.0989C157.415 21.298 157.673 21.4772 157.99 21.6365C158.328 21.7958 158.705 21.9352 159.122 22.0546C159.558 22.1741 160.005 22.2737 160.461 22.3533C161.077 22.4728 161.662 22.6321 162.218 22.8312C162.774 23.0104 163.26 23.2592 163.677 23.5778C164.093 23.8963 164.421 24.2946 164.659 24.7725C164.897 25.2504 165.016 25.8377 165.016 26.5346C165.016 27.331 164.858 28.0081 164.54 28.5656C164.222 29.123 163.796 29.581 163.26 29.9394C162.744 30.278 162.148 30.5267 161.474 30.6861C160.819 30.8455 160.144 30.925 159.449 30.925C158.258 30.925 157.226 30.7458 156.353 30.3874C155.499 30.0092 154.725 29.3223 154.031 28.3266L155.877 26.893ZM181.862 28.028C181.028 29.1032 180.115 29.8599 179.123 30.2978C178.131 30.716 176.98 30.925 175.67 30.925C174.578 30.925 173.596 30.7358 172.722 30.3576C171.849 29.9593 171.105 29.4317 170.49 28.7746C169.894 28.1176 169.428 27.341 169.09 26.445C168.773 25.549 168.614 24.5933 168.614 23.5778C168.614 22.5026 168.793 21.517 169.15 20.621C169.507 19.7051 170.003 18.9286 170.638 18.2914C171.273 17.6344 172.028 17.1266 172.901 16.7682C173.774 16.4098 174.727 16.2306 175.759 16.2306C176.731 16.2306 177.625 16.3999 178.438 16.7384C179.252 17.0569 179.947 17.5348 180.522 18.172C181.118 18.7892 181.574 19.5558 181.892 20.4717C182.209 21.3677 182.368 22.3931 182.368 23.548V24.2946H171.115C171.154 24.892 171.293 25.4695 171.532 26.0269C171.789 26.5645 172.117 27.0424 172.514 27.4605C172.911 27.8588 173.377 28.1773 173.913 28.4162C174.449 28.6552 175.035 28.7746 175.67 28.7746C176.682 28.7746 177.535 28.5954 178.23 28.237C178.925 27.8786 179.55 27.3511 180.106 26.6541L181.862 28.028ZM179.867 22.3234C179.828 21.1288 179.441 20.173 178.706 19.4562C177.972 18.7394 176.96 18.381 175.67 18.381C174.38 18.381 173.338 18.7394 172.544 19.4562C171.75 20.173 171.273 21.1288 171.115 22.3234H179.867Z" fill="black"/>
<path d="M95.1279 22.0047L96.9128 17.2667H100.002L99.1779 22.0047H95.1279Z" fill="#FC2E06"/>
<path d="M114.897 21.726L113.137 17.2667H110.092L110.904 21.726H114.897Z" fill="#FC2E06"/>
<path d="M103.434 17.2667H99.9332L99.1094 21.935H103.159L103.434 17.2667Z" fill="#E7E7E7"/>
<path d="M106.66 17.2667H110.161L110.985 21.935H106.935L106.66 17.2667Z" fill="#E7E7E7"/>
<path d="M103.09 21.8653L103.369 17.2667H106.932L107.071 21.8653H103.09Z" fill="#FC2E06"/>
<path d="M95.1279 21.8654H99.1093V22.7947C99.1093 23.8976 98.2181 24.7917 97.1186 24.7917C96.0192 24.7917 95.1279 23.8976 95.1279 22.7947V21.8654Z" fill="#FF6244"/>
<path d="M99.1133 21.8181H103.099V22.7317C103.099 23.836 102.207 24.731 101.106 24.731C100.005 24.731 99.1133 23.836 99.1133 22.7317V21.8181Z" fill="#CBCBCB"/>
<path d="M103.09 21.726H107.071V22.6552C107.071 23.7583 106.18 24.6524 105.081 24.6524C103.981 24.6524 103.09 23.7583 103.09 22.6552V21.726Z" fill="#FF6244"/>
<path d="M107.071 21.726H110.915V22.7241C110.915 23.7891 110.055 24.6524 108.993 24.6524C107.932 24.6524 107.071 23.7891 107.071 22.7241V21.726Z" fill="#CBCBCB"/>
<path d="M110.916 21.726H114.897V22.6552C114.897 23.7583 114.006 24.6524 112.907 24.6524C111.807 24.6524 110.916 23.7583 110.916 22.6552V21.726Z" fill="#FF6244"/>
</svg>
