<svg width="195" height="32" viewBox="0 0 195 32" fill="none" xmlns="http://www.w3.org/2000/svg">
<rect x="0.461914" y="0.787598" width="194.077" height="31.2124" rx="15.6062" fill="black"/>
<path d="M55.4591 16.2815C55.4591 15.7148 55.5525 15.2015 55.7391 14.7415C55.9258 14.2748 56.1825 13.8782 56.5091 13.5515C56.8425 13.2248 57.2358 12.9748 57.6891 12.8015C58.1491 12.6215 58.6525 12.5315 59.1991 12.5315C59.7525 12.5248 60.2591 12.6082 60.7191 12.7815C61.1791 12.9482 61.5758 13.1948 61.9091 13.5215C62.2425 13.8482 62.5025 14.2415 62.6891 14.7015C62.8758 15.1615 62.9691 15.6748 62.9691 16.2415C62.9691 16.7948 62.8758 17.2982 62.6891 17.7515C62.5025 18.2048 62.2425 18.5948 61.9091 18.9215C61.5758 19.2482 61.1791 19.5048 60.7191 19.6915C60.2591 19.8715 59.7525 19.9648 59.1991 19.9715C58.6525 19.9715 58.1491 19.8848 57.6891 19.7115C57.2358 19.5315 56.8425 19.2815 56.5091 18.9615C56.1825 18.6348 55.9258 18.2448 55.7391 17.7915C55.5525 17.3382 55.4591 16.8348 55.4591 16.2815ZM56.7791 16.2015C56.7791 16.5815 56.8358 16.9315 56.9491 17.2515C57.0691 17.5715 57.2358 17.8482 57.4491 18.0815C57.6625 18.3148 57.9158 18.4982 58.2091 18.6315C58.5091 18.7648 58.8425 18.8315 59.2091 18.8315C59.5758 18.8315 59.9091 18.7648 60.2091 18.6315C60.5091 18.4982 60.7658 18.3148 60.9791 18.0815C61.1925 17.8482 61.3558 17.5715 61.4691 17.2515C61.5891 16.9315 61.6491 16.5815 61.6491 16.2015C61.6491 15.8482 61.5891 15.5182 61.4691 15.2115C61.3558 14.9048 61.1925 14.6382 60.9791 14.4115C60.7658 14.1782 60.5091 13.9982 60.2091 13.8715C59.9091 13.7382 59.5758 13.6715 59.2091 13.6715C58.8425 13.6715 58.5091 13.7382 58.2091 13.8715C57.9158 13.9982 57.6625 14.1782 57.4491 14.4115C57.2358 14.6382 57.0691 14.9048 56.9491 15.2115C56.8358 15.5182 56.7791 15.8482 56.7791 16.2015ZM69.0592 14.9915H70.2592V15.7515H70.2792C70.4126 15.4715 70.6026 15.2548 70.8492 15.1015C71.0959 14.9482 71.3792 14.8715 71.6992 14.8715C71.7726 14.8715 71.8426 14.8782 71.9092 14.8915C71.9826 14.9048 72.0559 14.9215 72.1292 14.9415V16.1015C72.0292 16.0748 71.9292 16.0548 71.8292 16.0415C71.7359 16.0215 71.6426 16.0115 71.5492 16.0115C71.2692 16.0115 71.0426 16.0648 70.8692 16.1715C70.7026 16.2715 70.5726 16.3882 70.4792 16.5215C70.3926 16.6548 70.3326 16.7882 70.2992 16.9215C70.2726 17.0548 70.2592 17.1548 70.2592 17.2215V19.7915H69.0592V14.9915ZM81.5702 19.0715H81.5502C81.3768 19.3648 81.1435 19.5782 80.8502 19.7115C80.5568 19.8448 80.2402 19.9115 79.9002 19.9115C79.5268 19.9115 79.1935 19.8482 78.9002 19.7215C78.6135 19.5882 78.3668 19.4082 78.1602 19.1815C77.9535 18.9548 77.7968 18.6882 77.6902 18.3815C77.5835 18.0748 77.5302 17.7448 77.5302 17.3915C77.5302 17.0382 77.5868 16.7082 77.7002 16.4015C77.8135 16.0948 77.9702 15.8282 78.1702 15.6015C78.3768 15.3748 78.6235 15.1982 78.9102 15.0715C79.1968 14.9382 79.5102 14.8715 79.8502 14.8715C80.0768 14.8715 80.2768 14.8948 80.4502 14.9415C80.6235 14.9882 80.7768 15.0482 80.9102 15.1215C81.0435 15.1948 81.1568 15.2748 81.2502 15.3615C81.3435 15.4415 81.4202 15.5215 81.4802 15.6015H81.5102V12.2315H82.7102V19.7915H81.5702V19.0715ZM78.7302 17.3915C78.7302 17.5782 78.7602 17.7582 78.8202 17.9315C78.8868 18.1048 78.9802 18.2582 79.1002 18.3915C79.2268 18.5248 79.3768 18.6315 79.5502 18.7115C79.7235 18.7915 79.9202 18.8315 80.1402 18.8315C80.3602 18.8315 80.5568 18.7915 80.7302 18.7115C80.9035 18.6315 81.0502 18.5248 81.1702 18.3915C81.2968 18.2582 81.3902 18.1048 81.4502 17.9315C81.5168 17.7582 81.5502 17.5782 81.5502 17.3915C81.5502 17.2048 81.5168 17.0248 81.4502 16.8515C81.3902 16.6782 81.2968 16.5248 81.1702 16.3915C81.0502 16.2582 80.9035 16.1515 80.7302 16.0715C80.5568 15.9915 80.3602 15.9515 80.1402 15.9515C79.9202 15.9515 79.7235 15.9915 79.5502 16.0715C79.3768 16.1515 79.2268 16.2582 79.1002 16.3915C78.9802 16.5248 78.8868 16.6782 78.8202 16.8515C78.7602 17.0248 78.7302 17.2048 78.7302 17.3915ZM90.029 17.8115C90.069 18.1715 90.209 18.4515 90.449 18.6515C90.689 18.8515 90.979 18.9515 91.319 18.9515C91.619 18.9515 91.869 18.8915 92.069 18.7715C92.2757 18.6448 92.4557 18.4882 92.609 18.3015L93.469 18.9515C93.189 19.2982 92.8757 19.5448 92.529 19.6915C92.1823 19.8382 91.819 19.9115 91.439 19.9115C91.079 19.9115 90.739 19.8515 90.419 19.7315C90.099 19.6115 89.8223 19.4415 89.589 19.2215C89.3557 19.0015 89.169 18.7382 89.029 18.4315C88.8957 18.1182 88.829 17.7715 88.829 17.3915C88.829 17.0115 88.8957 16.6682 89.029 16.3615C89.169 16.0482 89.3557 15.7815 89.589 15.5615C89.8223 15.3415 90.099 15.1715 90.419 15.0515C90.739 14.9315 91.079 14.8715 91.439 14.8715C91.7723 14.8715 92.0757 14.9315 92.349 15.0515C92.629 15.1648 92.8657 15.3315 93.059 15.5515C93.259 15.7715 93.4123 16.0448 93.519 16.3715C93.6323 16.6915 93.689 17.0615 93.689 17.4815V17.8115H90.029ZM92.489 16.9115C92.4823 16.5582 92.3723 16.2815 92.159 16.0815C91.9457 15.8748 91.649 15.7715 91.269 15.7715C90.909 15.7715 90.6223 15.8748 90.409 16.0815C90.2023 16.2882 90.0757 16.5648 90.029 16.9115H92.489ZM99.8112 14.9915H101.011V15.7515H101.031C101.165 15.4715 101.355 15.2548 101.601 15.1015C101.848 14.9482 102.131 14.8715 102.451 14.8715C102.525 14.8715 102.595 14.8782 102.661 14.8915C102.735 14.9048 102.808 14.9215 102.881 14.9415V16.1015C102.781 16.0748 102.681 16.0548 102.581 16.0415C102.488 16.0215 102.395 16.0115 102.301 16.0115C102.021 16.0115 101.795 16.0648 101.621 16.1715C101.455 16.2715 101.325 16.3882 101.231 16.5215C101.145 16.6548 101.085 16.7882 101.051 16.9215C101.025 17.0548 101.011 17.1548 101.011 17.2215V19.7915H99.8112V14.9915ZM116.767 12.7115H118.437L121.867 17.9715H121.887V12.7115H123.147V19.7915H121.547L118.047 14.3615H118.027V19.7915H116.767V12.7115ZM129.376 17.3915C129.376 17.0115 129.443 16.6682 129.576 16.3615C129.716 16.0482 129.903 15.7815 130.136 15.5615C130.369 15.3415 130.646 15.1715 130.966 15.0515C131.286 14.9315 131.626 14.8715 131.986 14.8715C132.346 14.8715 132.686 14.9315 133.006 15.0515C133.326 15.1715 133.603 15.3415 133.836 15.5615C134.069 15.7815 134.253 16.0482 134.386 16.3615C134.526 16.6682 134.596 17.0115 134.596 17.3915C134.596 17.7715 134.526 18.1182 134.386 18.4315C134.253 18.7382 134.069 19.0015 133.836 19.2215C133.603 19.4415 133.326 19.6115 133.006 19.7315C132.686 19.8515 132.346 19.9115 131.986 19.9115C131.626 19.9115 131.286 19.8515 130.966 19.7315C130.646 19.6115 130.369 19.4415 130.136 19.2215C129.903 19.0015 129.716 18.7382 129.576 18.4315C129.443 18.1182 129.376 17.7715 129.376 17.3915ZM130.576 17.3915C130.576 17.5782 130.606 17.7582 130.666 17.9315C130.733 18.1048 130.826 18.2582 130.946 18.3915C131.073 18.5248 131.223 18.6315 131.396 18.7115C131.569 18.7915 131.766 18.8315 131.986 18.8315C132.206 18.8315 132.403 18.7915 132.576 18.7115C132.749 18.6315 132.896 18.5248 133.016 18.3915C133.143 18.2582 133.236 18.1048 133.296 17.9315C133.363 17.7582 133.396 17.5782 133.396 17.3915C133.396 17.2048 133.363 17.0248 133.296 16.8515C133.236 16.6782 133.143 16.5248 133.016 16.3915C132.896 16.2582 132.749 16.1515 132.576 16.0715C132.403 15.9915 132.206 15.9515 131.986 15.9515C131.766 15.9515 131.569 15.9915 131.396 16.0715C131.223 16.1515 131.073 16.2582 130.946 16.3915C130.826 16.5248 130.733 16.6782 130.666 16.8515C130.606 17.0248 130.576 17.2048 130.576 17.3915ZM140.069 14.9915H141.369L142.409 18.3515H142.429L143.399 14.9915H144.699L145.739 18.3515H145.759L146.759 14.9915H147.969L146.339 19.7915H145.149L144.009 16.5115H143.989L142.979 19.7915H141.739L140.069 14.9915ZM155.078 17.5715H153.878V12.7115H155.078V17.5715ZM153.678 19.0915C153.678 18.8782 153.755 18.6948 153.908 18.5415C154.068 18.3882 154.258 18.3115 154.478 18.3115C154.692 18.3115 154.878 18.3848 155.038 18.5315C155.198 18.6782 155.278 18.8582 155.278 19.0715C155.278 19.2848 155.198 19.4682 155.038 19.6215C154.885 19.7748 154.698 19.8515 154.478 19.8515C154.372 19.8515 154.268 19.8315 154.168 19.7915C154.075 19.7515 153.992 19.6982 153.918 19.6315C153.845 19.5648 153.785 19.4848 153.738 19.3915C153.698 19.2982 153.678 19.1982 153.678 19.0915Z" fill="white"/>
<path fill-rule="evenodd" clip-rule="evenodd" d="M15.6678 28.3986C22.2979 28.3986 27.6726 23.0238 27.6726 16.3938C27.6726 9.76375 22.2979 4.38904 15.6678 4.38904C9.0378 4.38904 3.66309 9.76375 3.66309 16.3938C3.66309 23.0238 9.0378 28.3986 15.6678 28.3986Z" fill="#25D366"/>
<path fill-rule="evenodd" clip-rule="evenodd" d="M16.0636 23.0727H16.0607C14.866 23.0723 13.692 22.7725 12.6494 22.2038L8.86523 23.1965L9.87794 19.4974C9.25325 18.4148 8.92455 17.1868 8.92508 15.9287C8.92665 11.9929 12.1289 8.79077 16.0636 8.79077C17.9732 8.7916 19.7655 9.535 21.1132 10.8843C22.4609 12.2335 23.2027 14.027 23.202 15.9344C23.2004 19.8693 19.9994 23.0711 16.0636 23.0727ZM12.825 20.9116L13.0416 21.0402C13.9526 21.5808 14.9968 21.8668 16.0615 21.8672H16.0639C19.3341 21.8672 21.9957 19.2056 21.997 15.934C21.9976 14.3487 21.381 12.858 20.2608 11.7365C19.1407 10.615 17.651 9.99711 16.0662 9.99656C12.7935 9.99656 10.1319 12.6579 10.1306 15.9292C10.1301 17.0503 10.4438 18.1421 11.0377 19.0868L11.1788 19.3112L10.5794 21.5007L12.825 20.9116ZM19.6602 17.6319C19.6156 17.5575 19.4967 17.5128 19.3184 17.4235C19.14 17.3343 18.2631 16.9028 18.0995 16.8432C17.9361 16.7837 17.8171 16.754 17.6982 16.9325C17.5793 17.111 17.2375 17.5128 17.1335 17.6319C17.0294 17.7509 16.9254 17.7658 16.7471 17.6765C16.5687 17.5873 15.994 17.3989 15.3127 16.7912C14.7824 16.3183 14.4245 15.7342 14.3204 15.5556C14.2164 15.3771 14.3093 15.2806 14.3986 15.1916C14.4789 15.1117 14.577 14.9832 14.6662 14.8791C14.7554 14.775 14.7851 14.7005 14.8445 14.5816C14.904 14.4625 14.8743 14.3584 14.8297 14.2691C14.7851 14.1798 14.4284 13.3019 14.2797 12.9447C14.135 12.5969 13.9879 12.644 13.8784 12.6385C13.7745 12.6333 13.6555 12.6322 13.5366 12.6322C13.4177 12.6322 13.2244 12.6769 13.0609 12.8554C12.8975 13.034 12.4367 13.4655 12.4367 14.3434C12.4367 15.2214 13.0758 16.0695 13.165 16.1885C13.2542 16.3076 14.4227 18.1092 16.212 18.8818C16.6375 19.0655 16.9697 19.1753 17.2288 19.2575C17.6561 19.3933 18.0449 19.3741 18.3522 19.3282C18.6949 19.277 19.4075 18.8967 19.5562 18.4801C19.7048 18.0634 19.7048 17.7063 19.6602 17.6319Z" fill="#FDFDFD"/>
</svg>
